<svg xmlns="http://www.w3.org/2000/svg" viewBox="0 0 1100 200" fill="#eee" fill-rule="nonzero" stroke-linejoin="round" stroke-miterlimit="2" xmlns:v="https://vecta.io/nano"><path d="M199.546 139.213H-7.562V74.365L199.546-97.104h98.977v175.05h51.491v61.267h-51.491v53.311h-98.977v-53.311zm0-61.267v-89.514L89.699 77.945h109.847zM385.48 48.903c0-54.106 14.303-91.901 42.337-113.385 27.462-21.881 70.371-32.623 127.583-32.623 28.034 0 50.347 2.387 68.082 7.161s32.039 10.742 43.481 18.301c10.87 7.559 20.024 15.516 26.318 23.87s11.442 18.301 15.447 29.44c7.438 21.086 11.442 43.365 11.442 66.439 0 51.719-12.587 89.514-37.76 113.385s-68.654 35.806-129.871 35.806c-34.327 0-62.361-3.581-83.53-11.537-21.168-7.559-38.904-18.699-52.063-33.419-10.298-10.344-17.736-24.666-23.457-42.967-5.149-18.301-8.01-38.591-8.01-60.472zm112.708.398c0 36.203 4.577 60.87 13.731 73.998 9.726 13.527 22.885 19.892 40.621 19.892 11.442 0 21.168-2.785 29.75-8.355s14.875-14.322 18.88-26.655 5.721-31.032 5.721-56.891c0-37.795-4.577-63.257-13.731-76.385-9.154-12.731-22.885-19.494-41.193-19.494-18.88 0-32.611 6.763-41.193 19.892-8.01 13.527-12.587 37.795-12.587 73.998zm464.561 89.912H755.642V74.365L962.749-97.104h98.977v175.05h51.491v61.267h-51.491v53.311h-98.977v-53.311zm0-61.267v-89.514L852.902 77.945h109.847z"/></svg>