<svg xmlns="http://www.w3.org/2000/svg" viewBox="0 0 1100 200" fill="#69f0ae"  fill-rule="nonzero" stroke-linejoin="round" stroke-miterlimit="2" xmlns:v="https://vecta.io/nano"><path d="M118.786 128.516H40.097L29.168 165.77h-70.57L42.595-60.284h75.254l83.997 226.054h-72.131l-10.929-37.255zM104.11 79.579L79.442-1.56 55.086 79.58h49.024zM223.967-60.284h69.009v170.488h108.041v55.566h-177.05V-60.284zm208.269 0h185.168v48.305h-116.16v35.992h107.729v46.095H501.245v44.516h119.282v51.146H432.236V-60.284zm224.881 0h90.867l34.973 137.653L817.93-60.284h90.555V165.77h-56.519V-6.612L808.249 165.77h-50.898L713.636-6.612V165.77h-56.519V-60.284zM940.596 90.945l65.574-4.104c1.561 10.734 4.372 18.943 8.743 24.626 7.182 9.156 17.174 13.892 30.601 13.892 9.68 0 17.486-2.526 22.795-7.262 5.308-4.42 7.806-10.103 7.806-16.102s-2.498-11.05-7.494-15.786-16.862-8.84-35.285-12.944c-30.289-6.946-52.147-16.102-64.949-27.467-13.115-11.682-19.36-26.205-19.36-43.885 0-11.366 3.123-22.416 9.992-32.835 6.557-10.419 16.55-18.312 29.977-24.31s31.538-8.84 54.957-8.84c28.415 0 50.273 5.367 65.262 16.102s24.044 27.783 26.854 51.146l-65.262 4.104c-1.561-10.419-5.308-17.68-10.929-22.416-5.621-4.42-13.115-6.946-22.795-6.946-8.119 0-14.052 1.894-18.111 5.367s-6.245 7.577-6.245 12.313c0 3.789 1.561 6.946 4.996 9.787 3.435 3.157 10.929 5.683 23.107 8.524 30.289 6.314 51.835 12.944 64.949 19.89 13.115 6.63 22.483 15.154 28.728 24.942 5.933 10.103 8.743 21.153 8.743 33.466 0 14.523-4.059 27.783-11.866 40.096s-19.048 21.469-33.099 27.783c-14.364 6.314-32.162 9.472-54.02 9.472-38.095 0-64.325-7.262-79.001-22.1s-22.795-33.782-24.668-56.514z"/></svg>